<?xml version="1.0" encoding="utf-8"?>
<!-- Generator: Adobe Illustrator 17.0.0, SVG Export Plug-In . SVG Version: 6.00 Build 0)  -->
<!DOCTYPE svg PUBLIC "-//W3C//DTD SVG 1.1//EN" "http://www.w3.org/Graphics/SVG/1.1/DTD/svg11.dtd">
<svg version="1.1" id="Livello_1" xmlns="http://www.w3.org/2000/svg" xmlns:xlink="http://www.w3.org/1999/xlink" x="0px" y="0px"
	 width="150px" height="150px" viewBox="0 0 150 150" enable-background="new 0 0 150 150" xml:space="preserve">
<path fill="#FFFFFF" d="M75,0C33.579,0,0,33.579,0,75c0,41.421,33.579,75,75,75s75-33.579,75-75C150,33.579,116.421,0,75,0z M75,110
	c-2.929,0-5.304-1.506-5.304-3.364h10.607C80.304,108.494,77.929,110,75,110z M81.646,105.147H68.354
	c-0.777,0-1.406-0.63-1.406-1.406c0-0.777,0.63-1.406,1.406-1.406h13.291c0.777,0,1.406,0.63,1.406,1.406
	C83.052,104.517,82.422,105.147,81.646,105.147z M81.646,100.937H68.354c-0.777,0-1.406-0.63-1.406-1.406
	c0-0.777,0.63-1.406,1.406-1.406h13.291c0.777,0,1.406,0.63,1.406,1.406C83.052,100.307,82.422,100.937,81.646,100.937z
	 M81.646,96.709H68.354c-0.777,0-1.406-0.63-1.406-1.406c0-0.777,0.63-1.406,1.406-1.406h13.291c0.777,0,1.406,0.63,1.406,1.406
	C83.052,96.079,82.422,96.709,81.646,96.709z M83.258,92.303H66.741c0-11.011-13.764-15.141-13.764-30.281
	C52.977,49.864,62.841,40,74.999,40c12.158,0,22.023,9.864,22.023,22.022C97.023,77.162,83.258,81.292,83.258,92.303z"/>
</svg>
