<?xml version="1.0" encoding="utf-8"?>
<!-- Generator: Adobe Illustrator 17.0.0, SVG Export Plug-In . SVG Version: 6.00 Build 0)  -->
<!DOCTYPE svg PUBLIC "-//W3C//DTD SVG 1.1//EN" "http://www.w3.org/Graphics/SVG/1.1/DTD/svg11.dtd">
<svg version="1.1" id="Livello_1" xmlns="http://www.w3.org/2000/svg" xmlns:xlink="http://www.w3.org/1999/xlink" x="0px" y="0px"
	 width="150px" height="150px" viewBox="0 0 150 150" enable-background="new 0 0 150 150" xml:space="preserve">
<g>
	<circle fill="#F6F6F6" cx="75" cy="75" r="75"/>
	<path fill="#0099CC" d="M120,109.5c0,1.657-1.343,3-3,3H33c-1.657,0-3-1.343-3-3v-69c0-1.657,1.343-3,3-3h84c1.657,0,3,1.343,3,3
		V109.5z"/>
	<rect x="33.5" y="44.544" fill="#9FD8EF" width="83" height="64.5"/>
	<circle fill="#9FD8EF" cx="35.437" cy="41.044" r="1.5"/>
	<circle fill="#9FD8EF" cx="40.451" cy="41.044" r="1.5"/>
	<circle fill="#9FD8EF" cx="45.451" cy="41.044" r="1.5"/>
	<g>
		<path fill="#F6F5F5" stroke="#9FD8EF" stroke-miterlimit="10" d="M90.771,80.515c0.216,0.144,0.288,0.432,0.18,0.685
			c-0.612,1.873-1.657,3.639-2.954,5.116c-0.18,0.216-0.433,0.288-0.685,0.18l-3.746-1.297c-0.938,0.757-1.981,1.369-3.099,1.801
			l-0.757,3.891c-0.036,0.252-0.252,0.468-0.504,0.504c-0.973,0.18-1.945,0.288-2.954,0.288s-1.981-0.108-2.954-0.288
			c-0.253-0.036-0.469-0.252-0.505-0.504L72.037,87c-1.117-0.432-2.198-1.044-3.099-1.801l-3.747,1.297
			c-0.252,0.108-0.504,0.036-0.685-0.18c-1.297-1.477-2.341-3.243-2.954-5.116c-0.107-0.252-0.036-0.541,0.181-0.685l2.99-2.594
			c-0.108-0.577-0.145-1.189-0.145-1.801c0-0.613,0.036-1.225,0.145-1.802l-2.99-2.594c-0.217-0.144-0.288-0.432-0.181-0.685
			c0.613-1.873,1.657-3.639,2.954-5.116c0.181-0.216,0.433-0.288,0.685-0.18l3.747,1.297c0.9-0.757,1.981-1.369,3.099-1.801
			l0.756-3.891c0.036-0.252,0.252-0.468,0.505-0.504c1.945-0.396,3.963-0.396,5.908,0c0.252,0.036,0.468,0.252,0.504,0.504
			l0.757,3.891c1.117,0.432,2.161,1.044,3.099,1.801l3.746-1.297c0.252-0.108,0.505-0.036,0.685,0.18
			c1.297,1.477,2.342,3.243,2.954,5.116c0.108,0.252,0.036,0.541-0.18,0.685l-2.99,2.594c0.107,0.577,0.144,1.189,0.144,1.802
			c0,0.612-0.036,1.225-0.144,1.801L90.771,80.515z M82.088,76.12c0-3.207-2.63-5.836-5.836-5.836c-3.242,0-5.837,2.63-5.837,5.836
			c0,3.242,2.595,5.836,5.837,5.836C79.458,81.956,82.088,79.362,82.088,76.12z"/>
	</g>
</g>
</svg>
