<?xml version="1.0" encoding="utf-8"?>
<!-- Generator: Adobe Illustrator 17.0.0, SVG Export Plug-In . SVG Version: 6.00 Build 0)  -->
<!DOCTYPE svg PUBLIC "-//W3C//DTD SVG 1.1//EN" "http://www.w3.org/Graphics/SVG/1.1/DTD/svg11.dtd">
<svg version="1.1" id="Livello_1" xmlns="http://www.w3.org/2000/svg" xmlns:xlink="http://www.w3.org/1999/xlink" x="0px" y="0px"
	 width="150px" height="150px" viewBox="0 0 150 150" enable-background="new 0 0 150 150" xml:space="preserve">
<g>
	<circle fill="#FFFFFF" cx="75" cy="75" r="75"/>
	<path fill="#0097CD" d="M106.468,68.51l-1.169-1.09l-0.001,0.008c-0.016-0.016-0.026-0.033-0.043-0.049L74.523,38.734
		c-0.667-0.622-1.759-0.622-2.426,0L41.364,67.379c-0.017,0.016-0.027,0.033-0.043,0.049l-0.001-0.008l-1.169,1.09l1.328,0.704
		l-0.002-0.017c0.046,0.031,0.086,0.064,0.137,0.091L71.846,85.37c0.805,0.428,2.122,0.428,2.927,0l30.231-16.081
		c0.051-0.027,0.091-0.061,0.137-0.091l-0.002,0.017L106.468,68.51z"/>
	<rect x="45.391" y="43.379" fill="#F6F6F6" width="54.833" height="45.255"/>
	<path fill="#9FD7EE" d="M73.31,86.148L40.151,68.51v1.755v0.921v37.018c0,0.969,0.786,1.755,1.755,1.755h62.808
		c0.969,0,1.755-0.786,1.755-1.755V71.185v-0.921V68.51L73.31,86.148z"/>
	<rect x="56.479" y="55.393" fill="#0099CC" width="14.228" height="3.899"/>
	<rect x="56.479" y="65.19" fill="#0099CC" width="33.874" height="3.899"/>
	<polygon fill="#0099CC" points="60.024,79.081 86.596,79.081 90.353,77.082 90.353,75.182 56.479,75.182 56.479,77.195 	"/>
	<path opacity="0.3" fill="#0097CD" d="M73.31,86.148l-32.551,23.373c0.308,0.268,0.706,0.436,1.147,0.436h62.808
		c0.441,0,0.839-0.168,1.147-0.436L73.31,86.148z"/>
</g>
</svg>
