<?xml version="1.0" encoding="utf-8"?>
<!-- Generator: Adobe Illustrator 17.0.0, SVG Export Plug-In . SVG Version: 6.00 Build 0)  -->
<!DOCTYPE svg PUBLIC "-//W3C//DTD SVG 1.1//EN" "http://www.w3.org/Graphics/SVG/1.1/DTD/svg11.dtd">
<svg version="1.1" id="Livello_1" xmlns="http://www.w3.org/2000/svg" xmlns:xlink="http://www.w3.org/1999/xlink" x="0px" y="0px"
	 width="150px" height="150px" viewBox="0 0 150 150" enable-background="new 0 0 150 150" xml:space="preserve">
<g>
	<circle fill="#F6F6F6" cx="75" cy="75" r="75"/>
	<path fill="#0098CD" d="M128.774,64.155c0-2.037-1.839-1.981-4.762-2.151c-5.329-0.309-3.791-1.423-22.563-1.619
		c-15.586-0.163-13.762,2.804-27.591,2.804s-12.005-2.967-27.591-2.804c-18.772,0.196-17.234,1.31-22.563,1.619
		c-2.923,0.17-4.762,0.114-4.762,2.151c0,2.037-0.53,5.862,1.684,5.862c2.929,0,2.804,3.841,3.475,6.886
		c1.916,8.702,2.073,19.023,19.387,18.657c29.697-0.627,20.85-25.117,30.37-24.69c9.52-0.427,0.673,24.063,30.37,24.69
		c17.314,0.366,17.471-9.956,19.387-18.657c0.671-3.046,0.546-6.886,3.475-6.886C129.304,70.018,128.774,66.192,128.774,64.155z"/>
	<path fill="#9FD8EF" d="M104.026,62.556c8.324-0.028,17.083,1.133,17.083,10.633c0,9.282-1.264,20.308-17.083,20.308
		c-16.429,0-22.574-10.938-22.574-20.874S93.169,62.593,104.026,62.556z"/>
	<path fill="#9FD8EF" d="M25.421,65.872c0,0-2.187-1.908-4.013,0C21.408,65.872,23.209,68.084,25.421,65.872z"/>
	<path fill="#9FD8EF" d="M43.691,62.556c-8.324-0.028-17.083,1.133-17.083,10.633c0,9.282,1.264,20.308,17.083,20.308
		c16.429,0,22.574-10.938,22.574-20.874S54.548,62.593,43.691,62.556z"/>
	<path fill="#9FD8EF" d="M122.297,65.872c0,0,2.187-1.908,4.013,0C126.31,65.872,124.509,68.084,122.297,65.872z"/>
</g>
</svg>
