<?xml version="1.0" encoding="utf-8"?>
<!-- Generator: Adobe Illustrator 17.0.0, SVG Export Plug-In . SVG Version: 6.00 Build 0)  -->
<!DOCTYPE svg PUBLIC "-//W3C//DTD SVG 1.1//EN" "http://www.w3.org/Graphics/SVG/1.1/DTD/svg11.dtd">
<svg version="1.1" id="Livello_1" xmlns="http://www.w3.org/2000/svg" xmlns:xlink="http://www.w3.org/1999/xlink" x="0px" y="0px"
	 width="150px" height="150px" viewBox="0 0 150 150" enable-background="new 0 0 150 150" xml:space="preserve">
<g>
	<circle fill="#FFFFFF" cx="75" cy="75" r="75"/>
	<path fill="#9FD8EF" d="M104.194,74.264c1.024-2.389,1.593-5.019,1.593-7.783c0-10.92-8.853-19.773-19.773-19.773
		c-7.726,0-14.412,4.434-17.666,10.893c-2.387-1.372-5.152-2.161-8.103-2.161c-8.995,0-16.286,7.292-16.286,16.286
		c0,0.022,0.002,0.043,0.002,0.064c-6.293,2.229-10.803,8.23-10.803,15.287c0,8.956,7.26,16.216,16.216,16.216h52.885
		c8.055,0,14.586-6.53,14.586-14.586C116.843,81.31,111.331,75.214,104.194,74.264z"/>
	<g>
		<path fill="#FFFFFF" d="M75.002,89.467c-2.397,0-4.562-0.907-6.213-2.42l-3.118,3.142c-0.094,0.07-0.187,0.116-0.303,0.116
			c-0.047,0-0.116,0-0.163-0.023c-0.163-0.07-0.256-0.232-0.256-0.396v-7.958c0-0.233,0.187-0.419,0.419-0.419h7.958
			c0.163,0,0.326,0.093,0.396,0.256c0.047,0.163,0.023,0.349-0.093,0.465l-2.467,2.443c1.024,0.908,2.374,1.443,3.84,1.443
			c2.699,0,4.956-1.815,5.654-4.305c0.047-0.186,0.209-0.302,0.396-0.302h2.583c0.116,0,0.256,0.046,0.326,0.163
			c0.069,0.093,0.116,0.209,0.093,0.326C83.216,86.256,79.494,89.467,75.002,89.467z M75.002,71.038c2.396,0,4.561,0.907,6.213,2.42
			l3.118-3.142c0.093-0.07,0.186-0.116,0.303-0.116c0.046,0,0.116,0,0.162,0.023c0.163,0.07,0.256,0.232,0.256,0.396v7.958
			c0,0.233-0.186,0.419-0.418,0.419h-7.959c-0.162,0-0.325-0.093-0.396-0.256c-0.046-0.163-0.023-0.349,0.094-0.465l2.466-2.443
			c-1.023-0.908-2.373-1.443-3.839-1.443c-2.699,0-4.957,1.815-5.654,4.305c-0.047,0.186-0.21,0.302-0.396,0.302H66.37
			c-0.14,0-0.257-0.046-0.326-0.14c-0.07-0.116-0.116-0.232-0.093-0.349C66.765,74.249,70.511,71.038,75.002,71.038z"/>
	</g>
</g>
</svg>
