<?xml version="1.0" encoding="utf-8"?>
<!-- Generator: Adobe Illustrator 17.0.0, SVG Export Plug-In . SVG Version: 6.00 Build 0)  -->
<!DOCTYPE svg PUBLIC "-//W3C//DTD SVG 1.1//EN" "http://www.w3.org/Graphics/SVG/1.1/DTD/svg11.dtd">
<svg version="1.1" id="Livello_1" xmlns="http://www.w3.org/2000/svg" xmlns:xlink="http://www.w3.org/1999/xlink" x="0px" y="0px"
	 width="150px" height="150px" viewBox="0 0 150 150" enable-background="new 0 0 150 150" xml:space="preserve">
<g>
	<circle fill="#F6F6F6" cx="75" cy="75" r="75"/>
	<path fill="#9FD8EF" d="M55.922,68.853l32.512,34.995c2.771,2.771,7.264,2.771,10.036,0c2.771-2.771,2.771-7.264,0-10.036
		L63.623,60.877c1.576-4.591,0.548-9.878-3.116-13.541c-3.787-3.787-9.31-4.766-14.003-2.954l6.401,6.401
		c2.071,2.071,2.071,5.43,0,7.501s-5.43,2.071-7.501,0l-6.401-6.401c-1.811,4.694-0.832,10.217,2.954,14.003
		C45.733,69.663,51.237,70.645,55.922,68.853z M90.715,101.568c-1.512-1.512-1.512-3.962,0-5.474s3.962-1.512,5.474,0
		s1.512,3.962,0,5.474S92.227,103.08,90.715,101.568z"/>
	<path fill="#0098CD" d="M108.992,59.02c-0.808,0.809-2.73,0.197-4.292-1.365c-1.562-1.562-2.173-3.484-1.365-4.292
		c0,0-5.249-5.249-7.515-7.515c-3.273-3.273-8.293-5.651-20.107-3.242c0,0,6.419,0.818,10.636,5.035
		c4.626,4.626-0.69,10.935-0.69,10.935L73.621,70.613l5.524,5.524l-2.769-2.769l-2.755-2.755l-0.015-0.015l-7.852,3.373
		L42.023,97.704l-0.177,0.177c-1.237,1.237,0.003,4.482,2.77,7.248c2.766,2.766,6.011,4.006,7.248,2.77l0.177-0.177l23.732-23.732
		l3.373-7.852l0,0l12.038-12.038c0,0,5.043-6.59,9.352-2.281c1.562,1.562,2.173,3.484,1.365,4.292l0.02-0.02l2.887,2.887
		l7.071-7.071L108.992,59.02z"/>
</g>
</svg>
