<?xml version="1.0" encoding="utf-8"?>
<!-- Generator: Adobe Illustrator 17.0.0, SVG Export Plug-In . SVG Version: 6.00 Build 0)  -->
<!DOCTYPE svg PUBLIC "-//W3C//DTD SVG 1.1//EN" "http://www.w3.org/Graphics/SVG/1.1/DTD/svg11.dtd">
<svg version="1.1" id="Livello_1" xmlns="http://www.w3.org/2000/svg" xmlns:xlink="http://www.w3.org/1999/xlink" x="0px" y="0px"
	 width="150px" height="150px" viewBox="0 0 150 150" enable-background="new 0 0 150 150" xml:space="preserve">
<g>
	<circle fill="#FFFFFF" cx="75" cy="75" r="75"/>
	<path fill="#0099CC" d="M93.69,113.833c0,3.13-2.537,5.667-5.667,5.667H59.69c-3.13,0-5.667-2.537-5.667-5.667V40.167
		c0-3.13,2.537-5.667,5.667-5.667h28.333c3.13,0,5.667,2.537,5.667,5.667C93.69,40.167,93.69,113.833,93.69,113.833z"/>
		<rect x="56.857" y="46.778" fill="#9FD8EF" width="34" height="60.067"/>
	<circle fill="#9FD8EF" cx="73.857" cy="113.216" r="2.833"/>
	<g>
		<path fill="#FFFFFF" d="M83.885,75.255c0,5.547-4.479,10.026-10.025,10.026s-10.026-4.479-10.026-10.026
			c0-5.546,4.479-10.026,10.026-10.026S83.885,69.709,83.885,75.255z M78.872,77.762c0-5.431-7.52-2.507-7.52-5.013
			c0-0.835,1.253-1.253,2.507-1.253c1.253,0,2.506,0.418,3.342,0.836l1.253-2.089c0,0-1.206-0.905-3.342-1.184v-1.323h-2.507v1.346
			c-1.833,0.302-3.76,1.3-3.76,3.667c0,5.431,7.52,2.506,7.52,5.013c0,0.835-1.253,1.253-2.506,1.253
			c-1.254,0-2.507-0.418-3.342-0.836l-1.254,2.089c0,0,1.207,0.905,3.342,1.184v1.323h2.507v-1.346
			C76.947,81.127,78.872,80.129,78.872,77.762z"/>
	</g>
	<g>
		<rect x="69.324" y="41.465" fill="#9FD8EF" width="9.067" height="2.267"/>
		<circle fill="#9FD8EF" cx="78.39" cy="42.598" r="1.133"/>
		<circle fill="#9FD8EF" cx="69.324" cy="42.598" r="1.133"/>
		<circle fill="#9FD8EF" cx="73.857" cy="38.897" r="1.133"/>
	</g>
</g>
</svg>
