<?xml version="1.0" encoding="utf-8"?>
<!-- Generator: Adobe Illustrator 17.0.0, SVG Export Plug-In . SVG Version: 6.00 Build 0)  -->
<!DOCTYPE svg PUBLIC "-//W3C//DTD SVG 1.1//EN" "http://www.w3.org/Graphics/SVG/1.1/DTD/svg11.dtd">
<svg version="1.1" id="Livello_1" xmlns="http://www.w3.org/2000/svg" xmlns:xlink="http://www.w3.org/1999/xlink" x="0px" y="0px"
	 width="150px" height="150px" viewBox="0 0 150 150" enable-background="new 0 0 150 150" xml:space="preserve">
<g>
	<circle fill="#FFFFFF" cx="75" cy="75" r="75"/>
	<path fill="#9FD8EF" d="M75,33c-23.196,0-42,18.804-42,42c0,23.196,18.804,42,42,42s42-18.804,42-42C117,51.804,98.196,33,75,33z
		 M75,109c-18.778,0-34-15.222-34-34s15.222-34,34-34s34,15.222,34,34S93.778,109,75,109z"/>
	<path fill="#9FD8EF" d="M75,49c-14.359,0-26,11.641-26,26s11.641,26,26,26s26-11.641,26-26S89.359,49,75,49z M75,93
		c-9.941,0-18-8.059-18-18c0-9.941,8.059-18,18-18s18,8.059,18,18C93,84.941,84.941,93,75,93z"/>
	<circle fill="#9FD8EF" cx="75" cy="75" r="10"/>
	<g>
		<polygon fill="#0098CD" points="75,75.239 94.055,116.252 99.817,104.638 111.068,115.935 115.923,111.443 104.444,99.919 
			115.923,94.021 		"/>
		<path fill="#F6F5F5" d="M94.026,118.562L72.949,73.197l45.261,20.774l-12.091,6.213l11.244,11.289l-6.323,5.851l-10.947-10.991
			L94.026,118.562z M99.541,102.944l11.555,11.602l3.386-3.132l-11.711-11.758l10.864-5.583L77.052,77.281l17.032,36.662
			L99.541,102.944z"/>
	</g>
</g>
</svg>
