<?xml version="1.0" encoding="utf-8"?>
<!-- Generator: Adobe Illustrator 17.0.0, SVG Export Plug-In . SVG Version: 6.00 Build 0)  -->
<!DOCTYPE svg PUBLIC "-//W3C//DTD SVG 1.1//EN" "http://www.w3.org/Graphics/SVG/1.1/DTD/svg11.dtd">
<svg version="1.1" id="Livello_1" xmlns="http://www.w3.org/2000/svg" xmlns:xlink="http://www.w3.org/1999/xlink" x="0px" y="0px"
	 width="150px" height="150px" viewBox="0 0 150 150" enable-background="new 0 0 150 150" xml:space="preserve">
<g>
	<circle fill="#FFFFFF" cx="75" cy="75" r="75"/>
	<path fill="#9FD8EF" d="M106.388,53.467v59.44c0,1.734-1.405,3.139-3.139,3.139H46.751c-1.734,0-3.139-1.405-3.139-3.139V40.715
		c0-1.734,1.405-3.139,3.139-3.139h43.917L106.388,53.467z"/>
	<path fill="#0099CC" d="M106.388,53.45h-8.184h-4.371c-1.734,0-3.139-1.405-3.139-3.139V45.94v-8.364L106.388,53.45z"/>
	<g>
		<g>
			<path fill="#FFFFFF" d="M85.789,86.244c0,0.279-0.222,0.502-0.499,0.502H69.293v2.51c0,0.195-0.111,0.391-0.306,0.474
				c-0.194,0.056-0.417,0.028-0.556-0.111L63.933,85.1c-0.194-0.195-0.194-0.53,0-0.726l4.499-4.519
				c0.139-0.139,0.361-0.167,0.556-0.111c0.194,0.083,0.306,0.279,0.306,0.474v2.51h15.996c0.277,0,0.499,0.223,0.499,0.502V86.244z
				 M82.151,77.569c-0.139,0.139-0.361,0.167-0.556,0.111c-0.194-0.083-0.306-0.279-0.306-0.474v-2.51H65.293
				c-0.277,0-0.499-0.223-0.499-0.502v-3.013c0-0.279,0.222-0.502,0.499-0.502h15.996v-2.51c0-0.195,0.111-0.391,0.306-0.474
				c0.194-0.056,0.417-0.028,0.556,0.111l4.499,4.519c0.194,0.195,0.194,0.53,0,0.726L82.151,77.569z"/>
		</g>
	</g>
</g>
</svg>
