<?xml version="1.0" encoding="utf-8"?>
<!-- Generator: Adobe Illustrator 17.0.0, SVG Export Plug-In . SVG Version: 6.00 Build 0)  -->
<!DOCTYPE svg PUBLIC "-//W3C//DTD SVG 1.1//EN" "http://www.w3.org/Graphics/SVG/1.1/DTD/svg11.dtd">
<svg version="1.1" id="Livello_1" xmlns="http://www.w3.org/2000/svg" xmlns:xlink="http://www.w3.org/1999/xlink" x="0px" y="0px"
	 width="200px" height="200px" viewBox="0 0 200 200" enable-background="new 0 0 200 200" xml:space="preserve">
<g>
	<circle fill="#9FD8EF" cx="100" cy="100" r="100"/>
	<path fill="#FFFFFF" d="M169.26,93.213L169.26,93.213L169.26,93.213 M101.032,161.533l67.56-67.651l0.669-0.67l-0.674-0.664
		l-4.433-4.367l-22.724-22.39l-83.044,0.283l-0.01,0.01h-0.001L31.406,93.037l-0.668,0.669l0,0v0l0.674,0.665l68.038,67.169
		l0.857,0.823L101.032,161.533z M99.329,92.795L81.152,92.86l-8.451,0.03l26.54-24.757L99.329,92.795z M98.205,67.277L71.223,92.446
		L59.691,67.413L98.205,67.277z M58.446,67.899L69.964,92.9l-36.663,0.13L58.446,67.899z M33.303,94.363l36.002-0.128l1.26-0.004
		l17.323,40.184l10.384,24.089L33.303,94.363z M85.864,126.35L72.015,94.226l27.319-0.097l0.1,28.116l0.128,35.879L85.864,126.35z
		 M141.369,67.604l21.671,21.354l3.651,3.598l-36.662,0.13L141.369,67.604z M140.121,67.128l-11.354,25.114l-27.16-24.977
		L140.121,67.128z M100.575,68.129l26.716,24.567l-26.628,0.095L100.575,68.129z M100.896,158.118l-0.228-63.995l27.291-0.097v0
		l0.028,0L100.896,158.118z M102.187,158.49l13.558-32.077l13.692-32.391l37.262-0.133L102.187,158.49z"/>
</g>
</svg>
