<?xml version="1.0" encoding="utf-8"?>
<!-- Generator: Adobe Illustrator 17.0.0, SVG Export Plug-In . SVG Version: 6.00 Build 0)  -->
<!DOCTYPE svg PUBLIC "-//W3C//DTD SVG 1.1//EN" "http://www.w3.org/Graphics/SVG/1.1/DTD/svg11.dtd">
<svg version="1.1" id="Livello_1" xmlns="http://www.w3.org/2000/svg" xmlns:xlink="http://www.w3.org/1999/xlink" x="0px" y="0px"
	 width="150px" height="150px" viewBox="0 0 150 150" enable-background="new 0 0 150 150" xml:space="preserve">
<g>
	<circle fill="#FFFFFF" cx="75" cy="75" r="75"/>
	<path fill="#0099CC" d="M109.984,100.326l0.027-0.027L93.06,83.348c-0.013-0.015-0.018-0.035-0.032-0.049
		c-0.563-0.563-1.738-0.354-2.982,0.405l-2.266-2.266c7.748-9.212,7.3-22.974-1.37-31.643c-9.156-9.156-24.002-9.156-33.158,0
		s-9.156,24.002,0,33.159c8.67,8.67,22.431,9.117,31.643,1.369l2.271,2.271c-0.748,1.237-0.951,2.401-0.391,2.961l-0.009,0.009
		l16.992,16.992l0.027-0.027c1.737,1.464,4.326,1.398,5.962-0.238C111.382,104.652,111.448,102.064,109.984,100.326z"/>
	<circle fill="#9FD8EF" cx="69.83" cy="66.373" r="19.616"/>
	<path fill="#0099CC" d="M90.654,87.197"/>
</g>
</svg>
