<?xml version="1.0" encoding="utf-8"?>
<!-- Generator: Adobe Illustrator 17.0.0, SVG Export Plug-In . SVG Version: 6.00 Build 0)  -->
<!DOCTYPE svg PUBLIC "-//W3C//DTD SVG 1.1//EN" "http://www.w3.org/Graphics/SVG/1.1/DTD/svg11.dtd">
<svg version="1.1" id="Livello_1" xmlns="http://www.w3.org/2000/svg" xmlns:xlink="http://www.w3.org/1999/xlink" x="0px" y="0px"
	 width="150px" height="150px" viewBox="0 0 150 150" enable-background="new 0 0 150 150" xml:space="preserve">
<g>
	<circle fill="#FFFFFF" cx="75" cy="75" r="75"/>
	<path fill="#0099CC" d="M92.623,47.344H39.483c-2.675,0-4.843,2.168-4.843,4.843v34.037c0,2.675,2.168,4.843,4.843,4.843h11.015
		v13.103l14.174-13.103h27.951c2.675,0,4.843-2.168,4.843-4.843V52.187C97.467,49.512,95.298,47.344,92.623,47.344z"/>
	<g>
		<path fill="#9FD8EF" d="M111.874,69.844H73.626c-1.925,0-3.486,1.561-3.486,3.486v24.498c0,1.925,1.561,3.486,3.486,3.486h7.928
			v9.431l10.202-9.431h20.118c1.925,0,3.486-1.561,3.486-3.486V73.33C115.36,71.405,113.8,69.844,111.874,69.844z"/>
		<path fill="#FFFFFF" d="M80.554,113.031v-10.717h-6.928c-2.474,0-4.485-2.012-4.485-4.486V73.33c0-2.474,2.012-4.486,4.485-4.486
			h38.248c2.474,0,4.486,2.012,4.486,4.486v24.499c0,2.474-2.013,4.486-4.486,4.486H92.147L80.554,113.031z M73.626,70.844
			c-1.37,0-2.485,1.115-2.485,2.486v24.499c0,1.371,1.115,2.486,2.485,2.486h8.928v8.145l8.811-8.145h20.51
			c1.371,0,2.486-1.115,2.486-2.486V73.33c0-1.371-1.115-2.486-2.486-2.486H73.626z"/>
	</g>
</g>
</svg>
