<?xml version="1.0" encoding="utf-8"?>
<!-- Generator: Adobe Illustrator 17.0.0, SVG Export Plug-In . SVG Version: 6.00 Build 0)  -->
<!DOCTYPE svg PUBLIC "-//W3C//DTD SVG 1.1//EN" "http://www.w3.org/Graphics/SVG/1.1/DTD/svg11.dtd">
<svg version="1.1" id="Livello_1" xmlns="http://www.w3.org/2000/svg" xmlns:xlink="http://www.w3.org/1999/xlink" x="0px" y="0px"
	 width="150px" height="150px" viewBox="0 0 150 150" enable-background="new 0 0 150 150" xml:space="preserve">
<g>
	<path fill="#FFFFFF" d="M75,0C33.579,0,0,33.579,0,75c0,41.421,33.579,75,75,75s75-33.579,75-75C150,33.579,116.421,0,75,0z
		 M108.008,51.002h-3v47.996h3v9.001h-9.001v-2.999H50.993v2.999h-9.001v-9.001h3.016V51.002h-3.016v-9.001h9.001v3h48.013v-3h9.001
		V51.002z"/>
	<polygon fill="#FFFFFF" points="99.007,48.001 50.993,48.001 50.993,51.002 48.006,51.002 48.006,98.998 50.993,98.998 
		50.993,101.998 99.007,101.998 99.007,98.998 102.003,98.998 102.003,51.002 99.007,51.002 	"/>
</g>
</svg>
